<svg version="1.2" xmlns="http://www.w3.org/2000/svg" viewBox="0 0 20 20" width="20" height="20">
	<style>
		.s0 { opacity: .2;fill: #ef4444 } 
		.s1 { fill: #ef4444 } 
	</style>
	<path class="s0" d="m17.5 10c0 1.48-0.44 2.93-1.26 4.17-0.83 1.23-2 2.19-3.37 2.76-1.37 0.57-2.88 0.72-4.33 0.43-1.46-0.29-2.79-1.01-3.84-2.06-1.05-1.05-1.77-2.38-2.06-3.84-0.29-1.45-0.14-2.96 0.43-4.33 0.57-1.37 1.53-2.54 2.76-3.37 1.24-0.82 2.69-1.26 4.17-1.26 1.99 0 3.9 0.79 5.3 2.2 1.41 1.4 2.2 3.31 2.2 5.3z"/>
	<path class="s1" d="m18.13 10c0 1.61-0.48 3.18-1.37 4.51-0.9 1.34-2.17 2.38-3.65 3-1.49 0.61-3.12 0.77-4.7 0.46-1.57-0.31-3.02-1.09-4.16-2.22-1.13-1.14-1.91-2.59-2.22-4.16-0.31-1.58-0.15-3.21 0.46-4.7 0.62-1.48 1.66-2.75 3-3.65 1.33-0.89 2.9-1.36 4.51-1.36 2.15 0 4.22 0.85 5.74 2.38 1.53 1.52 2.38 3.59 2.39 5.74zm-1.25 0c0-1.36-0.41-2.69-1.16-3.82-0.76-1.13-1.83-2.01-3.09-2.53-1.26-0.52-2.64-0.66-3.97-0.39-1.33 0.26-2.56 0.92-3.52 1.88-0.96 0.96-1.62 2.19-1.88 3.52-0.27 1.33-0.13 2.71 0.39 3.97 0.52 1.26 1.4 2.33 2.53 3.09 1.13 0.75 2.46 1.16 3.82 1.16 1.82-0.01 3.57-0.73 4.86-2.02 1.29-1.29 2.01-3.04 2.02-4.86zm-3.94-2.06l-2.06 2.06 2.06 2.06q0.09 0.09 0.14 0.2 0.05 0.12 0.05 0.24 0 0.12-0.05 0.24-0.05 0.11-0.14 0.2-0.09 0.09-0.2 0.14-0.12 0.05-0.24 0.05-0.12 0-0.24-0.05-0.11-0.05-0.2-0.14l-2.06-2.06-2.06 2.06q-0.09 0.09-0.2 0.14-0.12 0.05-0.24 0.05-0.12 0-0.24-0.05-0.11-0.05-0.2-0.14-0.09-0.09-0.14-0.2-0.05-0.12-0.05-0.24 0-0.12 0.05-0.24 0.05-0.11 0.14-0.2l2.06-2.06-2.06-2.06q-0.18-0.18-0.19-0.44 0.01-0.26 0.19-0.44 0.18-0.18 0.44-0.19 0.26 0.01 0.44 0.19l2.06 2.06 2.06-2.06q0.09-0.09 0.2-0.14 0.12-0.05 0.24-0.05 0.12 0 0.24 0.05 0.11 0.05 0.2 0.14 0.09 0.09 0.14 0.2 0.05 0.12 0.05 0.24 0 0.12-0.05 0.24-0.05 0.11-0.14 0.2z"/>
</svg>