<svg version="1.2" xmlns="http://www.w3.org/2000/svg" viewBox="0 0 20 22" width="20" height="22">
	<defs>
		<clipPath clipPathUnits="userSpaceOnUse" id="cp1">
			<path d="m0 0h19.25v22h-19.25z"/>
		</clipPath>
	</defs>
	<style>
		.s0 { fill: #030e09 } 
	</style>
	<g id="Clip-Path" clip-path="url(#cp1)">
		<g>
			<path class="s0" d="m19.19 7.03c-0.07-1.55-0.43-2.91-1.56-4.04-1.12-1.12-2.49-1.48-4.03-1.55-1.59-0.09-6.36-0.09-7.95 0-1.53 0.07-2.9 0.42-4.03 1.55-1.13 1.12-1.48 2.49-1.56 4.03-0.09 1.59-0.09 6.36 0 7.95 0.08 1.54 0.43 2.91 1.56 4.03 1.13 1.13 2.49 1.48 4.03 1.56 1.59 0.09 6.36 0.09 7.95 0 1.54-0.08 2.91-0.43 4.03-1.56 1.13-1.12 1.48-2.49 1.56-4.03 0.09-1.59 0.09-6.35 0-7.94zm-2.05 9.64c-0.34 0.84-0.99 1.49-1.83 1.83-1.27 0.51-4.28 0.39-5.68 0.39-1.4 0-4.41 0.11-5.68-0.39-0.84-0.33-1.49-0.98-1.83-1.83-0.5-1.27-0.38-4.27-0.38-5.67 0-1.4-0.12-4.42 0.38-5.68 0.34-0.84 0.99-1.49 1.83-1.83 1.27-0.5 4.28-0.39 5.68-0.39 1.4 0 4.41-0.11 5.68 0.39 0.84 0.33 1.49 0.98 1.83 1.83 0.5 1.27 0.38 4.28 0.38 5.68 0 1.4 0.12 4.41-0.38 5.67zm-1.22-10.81c0 0.64-0.52 1.15-1.15 1.15-0.64 0-1.15-0.52-1.15-1.15 0-0.64 0.51-1.15 1.15-1.15 0.63 0 1.15 0.51 1.15 1.15zm-6.29 0.2c-2.73 0-4.94 2.2-4.94 4.94 0 2.73 2.21 4.93 4.94 4.93 2.73 0 4.94-2.2 4.94-4.93 0-2.74-2.21-4.94-4.94-4.94zm0 8.15c-1.77 0-3.21-1.44-3.21-3.21 0-1.77 1.44-3.21 3.21-3.21 1.77 0 3.21 1.44 3.21 3.21 0 1.77-1.44 3.21-3.21 3.21z"/>
		</g>
	</g>
</svg>