<svg version="1.2" xmlns="http://www.w3.org/2000/svg" viewBox="0 0 22 22" width="22" height="22">
	<defs>
		<clipPath clipPathUnits="userSpaceOnUse" id="cp1">
			<path d="m0 0h22v22h-22z"/>
		</clipPath>
	</defs>
	<style>
		.s0 { fill: #030e09 } 
	</style>
	<g id="Clip-Path" clip-path="url(#cp1)">
		<g>
			<path class="s0" d="m19.74 6.52q0.02 0.29 0.01 0.58c0 5.96-4.53 12.83-12.83 12.83-2.55 0-4.93-0.74-6.92-2.02q0.53 0.06 1.09 0.06c2.11 0 4.04-0.72 5.6-1.93-1.98-0.04-3.65-1.34-4.22-3.13q0.42 0.07 0.85 0.07 0.61 0 1.19-0.15c-2.07-0.42-3.62-2.24-3.62-4.43v-0.06c0.61 0.34 1.3 0.55 2.04 0.58-1.22-0.81-2.01-2.2-2.01-3.76 0-0.84 0.22-1.61 0.61-2.28 2.23 2.74 5.56 4.53 9.3 4.72q-0.1-0.5-0.11-1.03c0-2.48 2.01-4.51 4.51-4.51 1.3 0 2.47 0.55 3.29 1.42 1.02-0.19 2-0.57 2.87-1.08-0.34 1.05-1.05 1.92-1.99 2.48 0.91-0.1 1.79-0.35 2.6-0.69-0.61 0.89-1.38 1.68-2.26 2.33z"/>
		</g>
	</g>
</svg>